<?xml version="1.0"?>
<svg xmlns="http://www.w3.org/2000/svg" xmlns:xlink="http://www.w3.org/1999/xlink" xmlns:svgjs="http://svgjs.com/svgjs" version="1.1" width="512" height="512" x="0" y="0" viewBox="0 0 512 512" style="enable-background:new 0 0 512 512" xml:space="preserve" class=""><g>
<g xmlns="http://www.w3.org/2000/svg">
	<g>
		<path d="M397,117h-77V90h45c24.813,0,45-20.187,45-45S389.813,0,365,0h-75v15v102c0,0-172.988,0-175,0C51.589,117,0,168.589,0,232    v175h181v105h170V407h161V232C512,168.589,460.411,117,397,117z M320,30h45c8.271,0,15,6.729,15,15s-6.729,15-15,15h-45V30z     M305,268c8.271,0,15,6.729,15,15s-6.729,15-15,15s-15-6.729-15-15S296.729,268,305,268z M200,377H30V232    c0-46.869,38.131-85,85-85s85,38.131,85,85V377z M241,482h-30v-75h30V482z M321,482h-50v-75h50V482z M482,377H230V232    c0-33.64-14.52-63.952-37.621-85H290v93.58c-17.459,6.192-30,22.865-30,42.42c0,24.813,20.187,45,45,45s45-20.187,45-45    c0-19.555-12.541-36.228-30-42.42V147h77c46.869,0,85,38.131,85,85V377z" fill="#0e3a5a" data-original="#000000" style=""/>
	</g>
</g>
<g xmlns="http://www.w3.org/2000/svg">
</g>
<g xmlns="http://www.w3.org/2000/svg">
</g>
<g xmlns="http://www.w3.org/2000/svg">
</g>
<g xmlns="http://www.w3.org/2000/svg">
</g>
<g xmlns="http://www.w3.org/2000/svg">
</g>
<g xmlns="http://www.w3.org/2000/svg">
</g>
<g xmlns="http://www.w3.org/2000/svg">
</g>
<g xmlns="http://www.w3.org/2000/svg">
</g>
<g xmlns="http://www.w3.org/2000/svg">
</g>
<g xmlns="http://www.w3.org/2000/svg">
</g>
<g xmlns="http://www.w3.org/2000/svg">
</g>
<g xmlns="http://www.w3.org/2000/svg">
</g>
<g xmlns="http://www.w3.org/2000/svg">
</g>
<g xmlns="http://www.w3.org/2000/svg">
</g>
<g xmlns="http://www.w3.org/2000/svg">
</g>
</g></svg>
